# xmcd CD database file
#
# Track frame offsets:
#	150
#	11987
#	37207
#	50545
#	59347
#	76802
#	97110
#	114607
#	128735
#	153012
#	180447
#	197690
#	215059
#	229432
#	246725
#	262490
#
# Disc length: 3706 seconds
#
# Revision: 0
# Processed by: cddbd v1.5PL3 Copyright (c) Steve Scherf et al.
# Submitted via: CDex 1.51
#
DISCID=f30e7810
DTITLE=Various  - Piano Magic
DYEAR=1900
DGENRE=Jazz
TTITLE0=Moonlighting
TTITLE1=Baker Street
TTITLE2=Evergreen
TTITLE3=Annie's Song
TTITLE4=Chariots Of Fire
TTITLE5=Another Day In Paradise
TTITLE6=Lady In Red
TTITLE7=Killing Me Softly
TTITLE8=Piano Man
TTITLE9=Nightbirds
TTITLE10=Your Song
TTITLE11=The First Time Ever I Saw Your Face
TTITLE12=Bridge Over Troubled Water
TTITLE13=(Everything I Do) I Do It For You
TTITLE14=How Deep Is Your Love
TTITLE15=Wonderful Tonight
EXTD=
EXTT0=
EXTT1=
EXTT2=
EXTT3=
EXTT4=
EXTT5=
EXTT6=
EXTT7=
EXTT8=
EXTT9=
EXTT10=
EXTT11=
EXTT12=
EXTT13=
EXTT14=
EXTT15=
PLAYORDER=
